<svg width="500" height="500" viewBox="0 0 500 500" fill="none" xmlns="http://www.w3.org/2000/svg">
<rect width="500" height="500" fill="white"/>
<path d="M177.151 267.734C175.584 266.558 174.408 265.383 173.233 264.207C171.469 262.64 169.902 260.877 168.335 259.309C167.551 258.526 167.355 257.742 167.551 256.567C167.943 255.391 168.139 254.216 168.531 253.04C172.057 240.11 175.388 227.18 178.914 214.249C179.11 213.857 179.11 213.466 179.306 212.878C179.698 211.115 179.502 210.919 177.739 211.311C175.779 211.898 173.624 212.486 171.665 212.878C170.294 213.27 169.118 213.662 167.747 213.857C166.572 214.053 165.984 214.837 165.592 216.013C164.221 221.498 162.653 226.788 161.282 232.077C158.735 241.285 156.384 250.297 153.837 259.505C153.445 261.073 153.641 262.248 154.817 263.228C156.384 264.599 157.755 265.97 159.127 267.538C160.498 268.909 162.066 269.889 164.025 269.889C168.531 270.085 172.841 273.611 173.82 278.509C174.996 284.386 170.686 290.46 164.808 291.047C158.343 291.831 153.445 287.913 152.662 281.448C152.466 279.097 151.486 277.333 149.723 275.57C146.588 272.632 143.846 269.497 140.711 266.558C139.535 265.579 139.34 264.599 139.731 263.032C143.258 249.906 146.784 236.779 150.311 223.653C150.703 222.086 151.094 220.323 151.486 218.755C151.682 218.168 151.094 217.972 150.703 217.972C150.115 217.972 149.527 218.168 149.135 218.363C139.927 220.91 130.719 223.261 121.316 225.808C120.728 226.004 119.944 226.2 119.356 226.396C119.16 226.592 118.965 226.984 119.16 227.18C119.552 227.767 120.14 228.355 120.728 228.943C124.254 232.469 127.585 235.996 131.111 239.326C132.287 240.306 132.483 241.285 132.091 242.853C131.111 246.183 130.328 249.514 129.348 252.844C129.152 253.236 129.152 253.628 128.76 254.02C128.172 254.02 127.781 253.628 127.389 253.236C119.16 245.008 110.932 236.779 102.508 228.355C102.116 227.963 101.92 227.767 101.528 227.376C98.9814 224.045 99.9609 219.735 103.683 217.776C104.663 217.384 105.642 216.992 106.426 216.796C132.678 210.723 158.735 203.67 184.596 196.813C185.575 196.617 186.751 196.225 187.926 196.029C192.432 195.638 195.763 199.36 194.783 203.67C193.803 208.176 192.432 212.682 191.257 217.188C187.142 232.861 182.832 248.534 178.718 264.403C178.13 265.383 177.935 266.558 177.151 267.734Z" fill="url(#paint0_linear_4519_1908)"/>
<path d="M172.844 296.34C172.844 292.617 175.587 289.875 179.309 289.679C183.031 289.679 185.97 292.421 185.97 296.144C185.97 299.866 182.835 303.001 179.309 303.001C175.782 302.805 172.844 299.866 172.844 296.34Z" fill="url(#paint1_linear_4519_1908)"/>
<path d="M211.023 258.706C211.023 254.787 211.023 250.673 211.023 246.755C211.023 245.383 211.219 245.188 212.591 245.188C217.293 245.188 221.995 245.188 226.697 245.188C227.676 245.188 228.46 245.383 229.439 245.579C232.77 246.167 235.317 247.93 236.492 251.065C238.451 256.159 238.647 261.448 236.492 266.738C235.317 269.677 232.966 271.636 229.831 272.419C228.656 272.615 227.676 272.811 226.501 273.007C221.995 273.007 217.293 273.007 212.787 273.007C211.219 273.007 211.023 272.811 211.023 271.244C211.023 266.934 211.023 262.82 211.023 258.706ZM217.489 258.901C217.489 261.252 217.489 263.603 217.489 265.954C217.489 266.738 217.88 267.13 218.664 267.13C221.015 267.13 223.562 267.13 225.913 266.934C228.656 266.738 230.223 265.367 230.811 262.624C231.398 260.077 231.398 257.53 230.811 254.983C230.223 252.24 228.656 250.673 225.717 250.673C223.562 250.477 221.211 250.673 219.056 250.673C217.684 250.673 217.489 250.869 217.489 252.24C217.489 254.395 217.489 256.746 217.489 258.901Z" fill="#36383D"/>
<path d="M289.2 224.62C291.355 226.775 291.943 229.322 291.747 232.065C291.747 232.457 291.747 232.653 291.747 233.045C291.551 234.416 292.139 235.983 291.355 237.159C289.592 237.551 287.828 237.355 286.065 237.159C285.477 237.159 285.282 236.571 285.282 236.179C285.282 235.004 285.282 234.024 285.282 232.849C285.282 231.869 285.282 230.889 285.282 229.91C285.086 228.343 284.302 227.559 282.735 227.167C280.384 226.775 278.033 226.971 275.682 226.971C275.094 226.971 274.898 227.363 274.898 227.951C274.898 228.93 274.898 229.714 274.898 230.694C274.898 232.849 274.898 235.004 274.898 237.159C272.939 237.746 270.98 237.355 269.217 237.355C268.825 237.355 268.629 236.963 268.629 236.767C268.629 236.375 268.629 236.179 268.629 235.787C268.629 227.755 268.629 219.527 268.629 211.494C268.629 209.927 268.825 209.927 270 209.927C274.31 209.927 278.62 209.927 283.127 209.927C284.106 209.927 285.086 209.927 286.065 210.319C291.355 211.69 293.706 217.567 291.159 222.269C290.571 222.857 289.983 223.641 289.2 224.62ZM279.012 221.486C280.188 221.486 281.167 221.486 282.343 221.486C282.539 221.486 282.735 221.486 282.931 221.486C284.694 221.094 285.477 219.918 285.282 218.155C285.086 216.784 284.106 215.804 282.343 215.608C280.188 215.412 278.229 215.608 276.074 215.608C275.486 215.608 275.094 216 275.094 216.588C275.094 216.784 275.094 216.98 275.094 217.176C275.094 222.073 274.31 221.486 279.012 221.486Z" fill="#36383D"/>
<path d="M282.752 272.813C280.793 272.813 278.834 272.813 276.679 272.421C272.956 271.638 270.41 269.482 269.234 265.956C267.667 261.254 267.667 256.356 269.43 251.458C270.606 247.932 273.348 245.777 277.071 245.385C280.793 244.797 284.711 244.797 288.434 245.385C292.548 245.973 295.291 248.128 296.466 252.046C297.837 256.552 298.033 261.254 296.466 265.76C295.291 269.287 292.94 271.442 289.217 272.421C287.062 272.813 284.907 272.813 282.752 272.813ZM282.948 250.871C281.968 250.871 280.989 250.871 280.009 250.871C277.658 251.067 276.091 252.242 275.307 254.593C274.524 257.532 274.524 260.47 275.307 263.605C275.895 265.76 277.267 266.936 279.618 267.327C281.773 267.523 284.124 267.523 286.279 267.327C288.434 267.132 289.805 265.76 290.393 263.801C291.372 260.666 291.372 257.532 290.393 254.593C289.805 252.438 288.238 251.263 285.887 251.067C284.907 250.675 283.928 250.871 282.948 250.871Z" fill="#36383D"/>
<path d="M248.044 262.43C247.457 264.389 247.849 266.348 247.653 268.308C247.457 273.793 248.436 272.814 242.755 273.01C241.383 273.01 241.188 272.814 241.188 271.246C241.188 264.977 241.188 258.512 241.188 252.243C241.188 250.479 241.188 248.716 241.188 246.953C241.188 245.778 241.579 245.386 242.559 245.386C247.261 245.386 251.963 245.386 256.665 245.386C256.861 245.386 257.056 245.386 257.252 245.386C263.913 246.169 266.852 252.635 263.326 258.316C262.934 258.708 262.738 259.296 262.542 259.492C262.346 260.275 262.738 260.667 262.934 260.863C264.305 262.43 264.697 264.389 264.697 266.544C264.697 268.504 264.697 270.267 264.697 272.226C264.697 272.422 264.501 272.618 264.501 272.814C264.305 272.814 264.305 273.01 264.109 273.01C257.056 273.205 258.428 274.185 258.232 267.72C258.232 267.328 258.232 266.74 258.232 266.348C258.036 263.802 257.252 262.822 254.51 262.626C252.355 262.234 250.2 262.43 248.044 262.43ZM252.159 250.871C250.983 250.871 250.004 250.871 248.828 250.871C248.436 250.871 247.849 251.067 247.849 251.459C247.849 253.026 247.261 254.986 248.044 256.357C248.828 257.532 250.591 256.749 251.767 256.749C252.746 256.749 253.53 256.749 254.51 256.749C255.097 256.749 255.685 256.749 256.077 256.553C257.448 256.161 258.428 254.986 258.232 253.614C258.232 252.243 257.252 251.067 255.685 250.871C254.51 250.675 253.334 250.871 252.159 250.871Z" fill="#36383D"/>
<path d="M263.939 209.926C264.526 210.71 264.526 211.298 264.526 211.689C264.526 216.391 264.526 221.289 264.526 225.991C264.526 227.754 264.331 229.518 263.743 231.281C262.763 234.024 261 235.787 258.257 236.766C257.278 237.158 256.102 237.354 254.927 237.354C252.38 237.354 249.833 237.354 247.286 237.354C246.502 237.354 245.719 237.158 244.935 236.962C241.017 236.179 239.058 233.632 238.274 229.909C238.078 229.126 238.078 228.146 238.078 227.167C238.078 221.877 238.078 216.391 238.078 211.102C238.078 209.926 238.274 209.73 239.45 209.73C245.523 209.926 244.347 208.555 244.543 214.432C244.543 217.959 244.543 221.289 244.543 224.816C244.543 225.991 244.739 226.971 244.935 228.146C245.327 230.105 246.502 231.281 248.462 231.673C250.421 232.064 252.184 232.064 254.143 231.673C256.494 231.281 257.669 230.105 257.865 227.754C258.061 226.579 258.061 225.599 258.061 224.424C258.061 220.114 258.061 215.804 258.061 211.494C258.061 210.122 258.257 209.926 259.629 209.926C261.196 209.73 262.763 209.926 263.939 209.926Z" fill="#36383D"/>
<path d="M347.198 250.672C344.259 250.672 341.516 250.672 338.578 250.672C337.402 250.672 336.031 250.672 334.855 251.064C333.876 251.456 333.092 252.043 332.896 253.219C332.7 254.199 333.484 255.178 334.855 255.57C335.835 255.962 336.815 255.962 337.794 255.962C339.166 255.962 340.537 255.962 341.712 255.962C347.394 256.55 350.529 261.251 348.961 266.737C348.373 268.892 347.002 270.263 345.239 271.243C343.867 271.831 342.496 272.223 341.125 272.418C338.774 272.81 329.566 272.81 326.823 272.418C326.235 265.757 325.843 267.129 331.133 266.933C333.68 266.933 336.227 266.933 338.774 266.737C339.753 266.737 340.537 266.541 341.321 266.149C342.104 265.757 342.692 264.974 342.692 263.994C342.692 263.015 342.3 262.231 341.321 261.839C340.341 261.447 339.166 261.251 337.99 261.251C336.619 261.251 335.051 261.251 333.68 261.056C327.998 260.468 324.864 255.374 326.823 249.888C327.411 248.321 328.39 247.146 329.762 246.362C331.329 245.578 332.896 244.991 334.464 244.795C338.382 244.403 342.3 244.599 346.218 244.599C347.002 244.599 347.394 244.991 347.394 245.774C347.59 247.733 347.982 249.301 347.198 250.672Z" fill="#36383D"/>
<path d="M364.638 221.094C365.226 227.755 365.618 226.383 360.132 226.579C357.585 226.579 355.234 226.579 352.687 226.579C351.708 226.579 351.316 227.167 351.708 228.147C352.295 230.302 353.863 231.477 356.018 231.869C356.605 232.065 357.389 232.065 357.977 232.065C359.74 232.065 361.503 232.065 363.267 232.065C368.164 232.065 367.185 231.477 367.381 236.375C367.381 237.159 366.793 237.551 366.009 237.551C362.287 237.551 358.565 237.746 355.038 237.551C349.944 237.355 346.418 234.416 345.242 229.518C344.263 225.6 344.263 221.877 345.242 217.959C346.418 213.257 349.553 210.514 354.45 210.123C358.369 209.927 362.287 210.123 366.205 209.927C366.793 209.927 367.185 210.319 367.185 210.906C367.185 211.886 367.185 212.865 367.185 213.845C367.185 215.216 366.989 215.412 365.617 215.412C363.267 215.412 360.916 215.412 358.565 215.412C357.781 215.412 356.997 215.412 356.214 215.412C353.667 215.608 352.099 216.98 351.512 219.331C351.316 220.114 351.512 220.702 352.491 220.702C355.43 220.702 358.369 220.702 361.111 220.702C362.483 220.898 363.462 220.506 364.638 221.094Z" fill="#36383D"/>
<path d="M307.408 272.615C299.571 273.007 301.139 273.791 300.943 267.13C300.943 260.861 300.943 254.395 300.943 248.126C300.943 247.538 300.943 246.755 300.943 246.167C300.943 245.579 301.335 245.188 301.922 245.188C302.902 245.188 303.882 245.188 304.861 245.188C307.8 245.188 310.934 245.188 313.873 245.188C315.245 245.188 316.812 245.188 318.183 245.579C321.906 246.167 324.257 248.91 324.648 252.632C324.648 252.828 324.648 252.828 324.648 253.024C325.236 259.881 321.514 263.212 315.832 263.407C313.677 263.407 311.326 263.407 309.171 263.407C307.408 263.407 307.212 263.603 307.212 265.367C307.408 267.522 307.408 269.873 307.408 272.615ZM311.326 257.53C312.698 257.53 314.265 257.726 315.636 257.53C317.4 257.334 318.379 255.963 318.379 254.395C318.379 252.828 317.4 251.261 315.636 251.065C313.09 250.869 310.543 251.065 307.996 251.065C307.408 251.065 307.212 251.457 307.212 252.044C307.212 252.632 307.212 253.22 307.212 253.612C307.408 258.118 306.624 257.53 311.326 257.53Z" fill="#36383D"/>
<path d="M296.254 223.445C296.254 219.527 296.254 215.412 296.254 211.494C296.254 210.123 296.45 209.927 297.821 209.927C302.131 209.927 306.441 209.927 310.752 209.927C311.927 209.927 312.907 210.123 314.082 210.319C315.062 210.514 316.041 210.906 316.825 211.494C320.155 213.845 320.351 217.371 319.959 221.094C319.568 224.424 317.413 226.383 314.278 227.363C312.907 227.755 311.535 227.951 309.968 227.951C308.205 227.951 306.441 227.951 304.678 227.951C302.915 227.951 302.719 228.147 302.719 229.714C302.719 231.869 302.719 234.024 302.719 235.983C302.719 237.159 302.523 237.355 301.348 237.355C295.47 237.159 296.45 238.334 296.254 232.653C296.254 229.518 296.254 226.383 296.254 223.445ZM307.225 222.269C307.225 222.073 307.225 222.073 307.225 222.269C308.401 222.269 309.576 222.269 310.947 222.269C312.711 222.073 313.886 220.898 313.886 219.331C314.082 217.567 312.907 216 311.143 215.804C309.968 215.608 308.988 215.608 307.813 215.608C301.935 215.608 302.915 214.629 302.915 220.702C302.915 222.073 303.111 222.269 304.286 222.269C305.266 222.269 306.245 222.269 307.225 222.269Z" fill="#36383D"/>
<path d="M211.229 210.122C213.776 209.73 226.314 209.73 228.273 210.122C231.996 210.906 234.347 213.257 234.934 216.979C235.13 218.154 235.13 219.526 234.934 220.701C234.542 224.424 232.191 226.775 228.665 227.558C226.51 227.95 224.159 227.95 222.004 227.95C216.714 227.95 217.694 227.166 217.498 232.26C217.498 233.632 217.498 235.199 217.498 236.57C217.498 236.766 217.302 236.962 217.302 237.158C216.91 237.158 216.714 237.354 216.322 237.354C209.857 237.354 211.033 238.529 211.033 232.26C211.033 225.991 211.033 219.526 211.033 213.257C211.033 212.277 210.837 211.297 211.229 210.122ZM221.808 222.073C223.179 222.073 224.551 222.073 225.726 222.073C226.706 222.073 227.685 221.485 228.077 220.505C229.253 218.546 228.077 215.999 225.922 215.608C223.375 215.216 220.828 215.412 218.282 215.412C217.89 215.412 217.498 215.803 217.498 216.391C217.498 216.979 217.498 217.567 217.498 217.959C217.694 222.856 216.714 222.073 221.808 222.073Z" fill="#36383D"/>
<path d="M390.864 272.425C390.668 272.621 390.472 272.621 390.276 272.621C388.317 272.621 386.554 272.817 384.594 272.425C383.419 271.053 383.223 269.29 382.439 267.527C380.872 263.217 379.109 258.711 377.542 254.401C377.15 253.421 376.954 252.246 375.974 252.05C374.603 252.05 374.407 253.421 374.015 254.401C372.252 259.103 370.489 264.001 368.725 268.702C368.334 269.878 367.942 271.249 366.962 272.425C365.003 272.621 362.848 272.621 360.889 272.425C360.497 271.641 360.889 271.053 361.281 270.27C363.828 263.413 366.374 256.556 368.921 249.699C369.117 249.111 369.313 248.523 369.705 247.936C371.076 245.585 373.231 244.409 376.17 244.409C378.913 244.409 381.068 245.781 382.243 248.327C382.439 248.915 382.635 249.307 382.831 249.895C385.378 256.752 387.925 263.609 390.472 270.466C390.864 271.249 391.06 271.837 390.864 272.425Z" fill="#36383D"/>
<path d="M329.554 210.123C329.946 211.102 329.75 211.886 329.75 212.866C329.75 216.588 329.75 220.506 329.75 224.229C329.75 225.208 329.75 225.992 329.75 226.971C329.946 230.302 331.317 231.673 334.843 232.065C336.803 232.261 338.762 232.065 340.917 232.065C342.288 232.065 342.484 232.261 342.484 233.633C342.484 238.139 343.072 237.551 338.762 237.747C337.39 237.747 336.019 237.747 334.843 237.747C334.256 237.747 333.472 237.747 332.884 237.747C327.203 237.159 324.46 234.612 323.676 228.931C323.676 228.539 323.48 227.951 323.48 227.559C323.48 222.27 323.48 216.784 323.48 211.494C323.48 210.319 323.676 210.123 324.852 210.123C326.419 209.927 327.986 209.535 329.554 210.123Z" fill="#36383D"/>
<path d="M400.092 258.901C400.092 263.016 400.092 267.13 400.092 271.244C400.092 272.615 399.896 272.811 398.525 272.811C398.133 272.811 397.937 272.811 397.545 272.811C393.039 272.811 393.627 273.399 393.627 268.893C393.627 262.232 393.627 255.571 393.627 248.91C393.627 247.93 393.627 247.147 393.627 246.167C393.627 245.579 394.019 245.188 394.606 245.188C395.978 245.188 397.545 245.188 398.916 245.188C399.7 245.188 400.092 245.775 400.092 246.559C400.092 250.673 400.092 254.787 400.092 258.901Z" fill="#36383D"/>
<path d="M320.176 282.417C318.609 283.397 318.805 284.964 318.413 286.14C318.021 287.903 317.237 288.686 315.082 288.49C314.103 288.49 313.319 287.903 313.123 286.923C312.927 286.531 312.927 286.14 312.731 285.552C312.34 284.572 312.731 283.201 311.36 282.613C310.576 283.593 310.968 284.768 310.968 285.748C310.968 286.727 310.968 287.511 310.772 288.49C310.772 289.078 310.184 289.078 309.793 289.078C309.205 289.078 308.617 288.882 308.617 288.295C308.617 285.552 308.617 282.809 308.617 279.87C308.617 278.891 309.205 278.303 310.184 278.107C312.144 277.715 313.515 278.499 313.907 280.262C314.299 281.633 314.495 282.809 314.886 284.18C315.082 284.572 315.278 284.964 315.67 285.16C316.65 283.593 316.65 281.829 317.237 280.066C317.825 278.499 318.609 277.911 320.176 277.911C321.743 277.911 322.723 278.695 322.723 280.262C322.723 282.809 322.723 285.356 322.723 287.903C322.723 288.686 322.135 288.882 321.352 288.882C320.764 288.882 320.372 288.49 320.372 287.903C319.98 286.531 320.176 284.376 320.176 282.417Z" fill="#36383D"/>
<path d="M353.478 278.693C355.829 278.693 357.788 278.693 359.747 278.693C361.902 278.889 363.077 280.065 363.469 282.22C363.469 282.612 363.469 283.003 363.665 283.591C363.861 287.118 362.882 289.86 358.18 289.469C356.808 289.469 355.241 289.665 353.87 289.273C353.086 287.901 353.674 286.334 353.478 284.767C353.282 282.808 353.478 281.044 353.478 278.693ZM356.025 283.787C356.025 284.375 356.025 285.159 356.025 285.746C356.025 286.922 356.22 287.118 357.592 287.118C357.984 287.118 358.18 287.118 358.571 287.118C360.139 286.922 360.727 286.53 360.922 284.963C361.118 283.983 360.922 283.199 360.726 282.416C360.531 281.632 359.943 281.044 359.159 281.044C355.829 280.848 356.025 280.652 356.025 283.787Z" fill="#36383D"/>
<path d="M226.109 285.547C225.522 286.526 225.913 287.506 225.718 288.485C225.718 288.877 225.326 289.269 224.934 289.269C224.542 289.269 224.15 289.073 223.758 289.073C223.562 289.073 223.562 288.681 223.562 288.485C223.562 285.547 223.562 282.412 223.562 279.473C223.562 279.081 223.954 278.69 224.346 278.69C226.305 278.69 228.069 278.494 230.028 278.69C231.791 278.886 232.966 280.257 232.575 282.02C231.987 283.783 232.183 285.155 232.575 286.722C232.77 287.31 232.575 287.898 232.575 288.289C232.575 288.877 231.987 289.269 231.399 289.269C230.811 289.269 230.224 289.269 230.028 288.485C229.832 288.093 230.028 287.506 229.832 287.114C229.636 285.547 229.44 285.351 227.873 285.155C227.089 285.547 226.501 285.547 226.109 285.547ZM227.481 280.845C226.109 280.845 225.718 281.236 225.718 282.02C225.718 282.804 226.305 283 227.481 283C228.264 283 229.44 283.196 229.636 282.02C229.832 281.432 229.244 280.845 227.481 280.845Z" fill="#36383D"/>
<path d="M281.188 289.465C280.405 289.465 279.621 289.465 278.837 289.269C276.878 288.877 275.703 287.702 275.311 285.742C275.115 284.371 275.115 283 275.311 281.824C275.703 279.865 276.878 278.69 279.033 278.69C280.405 278.494 281.776 278.69 282.952 278.69C283.735 278.69 283.931 279.277 283.735 279.865C283.735 280.453 283.343 280.845 282.756 280.845C281.776 280.845 280.797 280.845 279.817 280.845C279.229 280.845 278.837 281.041 278.446 281.628C278.25 282.02 278.446 282.608 278.642 282.804C279.817 282.804 280.797 282.804 281.972 283C282.56 283 282.756 283.587 282.756 284.175C282.756 284.763 282.364 284.959 281.972 285.155C280.797 285.351 279.817 285.351 278.642 285.351C278.446 285.351 278.25 285.547 278.25 285.742C278.25 286.134 278.446 286.33 278.446 286.526C278.837 287.114 279.425 287.114 280.013 287.114C280.992 287.114 281.972 287.114 282.952 287.114C283.735 287.114 283.735 287.702 283.735 288.289C283.735 288.681 283.539 289.269 282.952 289.269C282.56 289.465 281.776 289.465 281.188 289.465Z" fill="#36383D"/>
<path d="M347.762 278.693C348.546 278.693 349.329 278.889 350.113 278.889C350.505 278.889 350.701 279.281 350.701 279.673C350.701 280.065 350.701 280.652 350.113 280.848C349.329 281.044 348.35 281.044 347.566 281.044C347.174 281.044 346.587 281.044 346.195 281.24C345.803 281.24 345.607 281.632 345.607 281.828C345.607 282.416 345.803 282.808 346.195 282.808C346.782 283.003 347.566 283.003 348.154 283.003C348.937 283.003 349.525 283.199 349.525 283.983C349.525 284.767 349.133 285.159 347.958 285.159C346.978 285.159 346.195 285.158 345.215 285.354C345.019 285.354 344.823 285.55 344.823 285.746C344.823 286.138 344.823 286.334 345.019 286.726C345.411 287.314 345.999 287.314 346.587 287.314C347.566 287.314 348.546 287.314 349.525 287.314C350.113 287.314 350.505 287.705 350.505 288.489C350.505 289.077 350.113 289.469 349.525 289.665C348.154 289.665 346.782 289.86 345.607 289.665C343.648 289.469 342.472 288.293 342.081 286.334C341.885 284.963 341.885 283.591 342.081 282.416C342.472 280.457 343.648 279.281 345.803 279.085C346.391 278.693 346.978 278.693 347.762 278.693Z" fill="#36383D"/>
<path d="M240.441 279.079C242.988 278.688 242.988 278.492 243.576 280.451C244.164 282.214 244.947 283.977 245.535 285.741C245.731 285.936 245.927 286.328 246.123 286.328C246.319 286.328 246.711 285.936 246.711 285.741C247.494 283.781 248.082 282.018 248.866 280.059C249.258 278.884 249.649 278.688 250.825 278.884C251.608 278.884 251.804 279.275 251.608 280.059C250.825 282.214 250.041 284.173 249.258 286.328C249.062 286.916 248.866 287.504 248.474 288.287C247.886 289.463 247.102 290.051 245.927 290.051C244.752 290.051 243.772 289.267 243.38 288.287C242.596 284.957 241.421 282.018 240.441 279.079Z" fill="#36383D"/>
<path d="M257.861 282.024C257.665 282.22 257.469 282.416 257.273 282.612C256.685 284.179 256.097 285.746 255.51 287.313C255.314 287.901 255.118 288.293 254.922 288.881C254.726 289.273 253.355 289.664 252.767 289.273C252.179 288.881 252.375 288.293 252.571 287.705C253.355 285.354 254.334 283.199 255.118 280.848C255.314 280.261 255.51 279.869 255.901 279.281C257.077 277.714 259.232 277.714 260.407 279.477C260.603 279.869 260.799 280.261 260.995 280.652C261.975 283.003 262.758 285.354 263.542 287.901C263.738 288.293 263.738 288.685 263.346 289.077C262.954 289.468 261.583 289.273 261.191 288.685C260.799 288.097 260.603 287.509 260.407 286.922C259.82 285.354 259.232 283.787 258.644 282.22C258.644 282.22 258.448 282.024 257.861 282.024Z" fill="#36383D"/>
<path d="M213.766 285.747C213.766 286.922 213.766 287.51 213.57 288.293C213.374 289.469 213.178 289.665 212.199 289.665C211.415 289.665 211.023 289.077 211.023 288.293C211.023 285.551 211.023 282.808 211.023 280.065C211.023 279.281 211.415 278.89 212.199 278.89C213.766 278.89 215.529 278.89 217.097 278.89C219.056 279.086 220.035 280.261 220.231 282.22C220.231 284.179 219.252 285.551 217.097 285.943C216.117 285.747 214.942 285.747 213.766 285.747ZM215.334 283.592C215.529 283.592 216.313 283.592 216.901 283.396C217.293 283.2 217.489 282.808 217.489 282.416C217.489 281.828 217.293 281.437 216.901 281.437C215.921 281.045 214.942 281.045 213.962 281.437C213.766 281.437 213.57 281.632 213.57 281.828C213.178 282.612 213.766 283.592 215.334 283.592Z" fill="#36383D"/>
<path d="M336.794 281.437C336.794 283.787 336.794 286.138 336.794 288.489C336.794 289.273 336.206 289.469 335.422 289.469C334.834 289.469 334.443 289.077 334.443 288.489C334.443 286.53 334.443 284.571 334.443 282.612C334.443 281.241 334.443 281.241 332.875 281.045C332.679 281.045 332.483 281.045 332.288 281.045C331.504 281.045 331.504 280.457 331.504 279.869C331.504 279.477 331.7 278.89 332.288 278.89C334.639 278.89 336.989 278.89 339.34 278.89C339.928 278.89 340.32 279.281 340.32 280.065C340.32 280.457 340.124 280.849 339.536 281.045C338.557 281.045 337.577 280.849 336.794 281.437Z" fill="#36383D"/>
<path d="M268.837 278.693C270.012 278.693 271.188 278.693 272.559 278.693C273.147 278.693 273.343 279.085 273.147 279.673C273.147 280.065 273.147 280.457 272.559 280.652C272.363 280.652 272.167 280.652 271.971 280.848C270.208 281.24 270.208 281.24 270.208 282.808C270.208 284.571 270.208 286.334 270.208 288.097C270.208 288.881 269.816 289.273 269.033 289.273C268.445 289.273 267.857 289.077 267.857 288.489C267.857 286.726 267.857 284.963 267.857 283.199C267.857 281.24 267.857 281.24 265.702 280.848C265.506 280.848 265.31 280.848 265.114 280.652C264.723 280.457 264.723 279.869 264.723 279.477C264.723 279.085 264.919 278.889 265.31 278.889C266.486 278.693 267.661 278.889 268.837 278.693Z" fill="#36383D"/>
<path d="M292.348 282.612C292.348 281.632 292.348 280.849 292.348 279.869C292.348 278.889 292.935 278.498 293.915 278.694C294.307 278.694 294.699 278.889 294.895 279.477C294.895 280.457 294.895 281.24 294.895 282.22C294.895 283.2 294.895 283.983 294.895 284.963C295.09 286.726 295.482 287.118 297.05 287.314C297.637 287.314 298.421 287.314 299.009 287.51C299.401 287.706 299.596 288.097 299.596 288.489C299.596 289.077 299.401 289.469 299.009 289.469C297.441 289.665 295.874 289.665 294.503 289.077C293.327 288.489 292.544 287.51 292.544 286.334C292.348 284.963 292.544 283.787 292.348 282.612Z" fill="#36383D"/>
<path d="M325.852 283.787C325.852 282.416 325.852 281.045 325.852 279.869C325.852 279.281 326.243 278.89 326.831 278.89C327.811 278.89 328.398 279.086 328.398 279.869C328.398 282.808 328.398 285.943 328.398 288.881C328.398 289.469 327.811 289.861 326.831 289.861C326.047 289.861 325.852 289.469 325.852 288.685C325.852 286.726 325.852 285.355 325.852 283.787Z" fill="#36383D"/>
<path d="M235.715 283.787C235.715 282.416 235.715 281.044 235.715 279.869C235.715 279.085 236.107 278.693 237.086 278.693C238.066 278.693 238.262 279.085 238.262 279.869C238.262 282.612 238.262 285.354 238.262 288.097C238.262 288.881 237.87 289.273 237.086 289.469C236.303 289.469 235.715 289.273 235.715 288.489C235.715 286.922 235.715 285.354 235.715 283.787Z" fill="#36383D"/>
<path d="M302.523 283.983C302.523 282.612 302.523 281.241 302.523 280.065C302.523 279.086 302.915 278.89 303.699 278.89C304.678 278.89 305.07 279.086 305.07 279.869C305.07 282.808 305.07 285.551 305.07 288.489C305.07 289.273 304.483 289.665 303.699 289.665C303.111 289.665 302.523 289.469 302.523 288.685C302.523 286.922 302.523 285.551 302.523 283.983Z" fill="#36383D"/>
<defs>
<linearGradient id="paint0_linear_4519_1908" x1="101.334" y1="217.778" x2="177.013" y2="298.971" gradientUnits="userSpaceOnUse">
<stop stop-color="#9300FF"/>
<stop offset="1" stop-color="#7300FF"/>
</linearGradient>
<linearGradient id="paint1_linear_4519_1908" x1="173.013" y1="292.728" x2="183.618" y2="303.973" gradientUnits="userSpaceOnUse">
<stop stop-color="#9300FF"/>
<stop offset="1" stop-color="#7300FF"/>
</linearGradient>
</defs>
</svg>
